<svg xmlns="http://www.w3.org/2000/svg" xmlns:xlink="http://www.w3.org/1999/xlink" width="32" height="38" viewBox="0 0 32 38"><defs><path id="st5za" d="M278.3 567.86c.45 0 .81.36.81.8a.8.8 0 0 1-.8.8h-9.67a.8.8 0 0 1-.8-.8c0-.44.35-.8.8-.8h9.67s-.45 0 0 0zm-3.22 4.78c.45 0 .8.35.8.8a.8.8 0 0 1-.8.79h-6.44a.8.8 0 0 1-.8-.8c0-.44.35-.8.8-.8h6.44s-.44 0 0 0zm-6.44-12.73a.8.8 0 0 1-.8-.8c0-.44.35-.8.8-.8h3.22c.45 0 .8.36.8.8a.8.8 0 0 1-.8.8zm-.8 3.98c0-.44.35-.8.8-.8h9.67c.44 0 .8.36.8.8a.8.8 0 0 1-.8.8h-9.67a.8.8 0 0 1-.8-.8s0 .43 0 0zM292 550.36v17.5a3.2 3.2 0 0 1-3.22 3.18h-2.42a.8.8 0 0 1-.8-.8c0-.43.36-.79.8-.79h2.42a1.6 1.6 0 0 0 1.6-1.59v-15.9h-4.82a1.6 1.6 0 0 1-1.62-1.6v-4.77h-9.66a1.6 1.6 0 0 0-1.61 1.6v2.38a.8.8 0 0 1-.8.8.8.8 0 0 1-.81-.8v-2.39a3.2 3.2 0 0 1 3.22-3.18h12.08zm-2.24 0l-4.2-4.65v4.65zm-11.45 1.6l5.63 6.36v17.5a3.2 3.2 0 0 1-3.22 3.18h-14.5a3.2 3.2 0 0 1-3.22-3.18v-20.68a3.2 3.2 0 0 1 3.22-3.19zm4.02 7.95h-4.83a1.6 1.6 0 0 1-1.61-1.6v-4.77h-9.67a1.6 1.6 0 0 0-1.6 1.6v20.68c0 .88.71 1.59 1.6 1.59h14.5a1.6 1.6 0 0 0 1.61-1.6zm-.63-1.6l-4.2-4.64v4.65z"/></defs><g><g transform="translate(-261 -542)"><use fill="#fff" xlink:href="#st5za"/></g></g></svg>